<svg width="130" height="19" viewBox="0 0 130 19" fill="none" xmlns="http://www.w3.org/2000/svg">
<path d="M0.528 5.57H4.62V18H8.382V5.57H12.474V2.556H0.528V5.57ZM24.9 18H28.882L23.294 2.556H18.938L13.35 18H17.288L18.212 15.272H23.976L24.9 18ZM23.008 12.368H19.202L21.094 6.714L23.008 12.368ZM30.5828 18H34.3448V5.724H30.5828V18ZM32.4748 4.448C33.7948 4.448 34.6968 3.546 34.6968 2.424C34.6968 1.28 33.7948 0.377999 32.4748 0.377999C31.1328 0.377999 30.2308 1.28 30.2308 2.424C30.2308 3.546 31.1328 4.448 32.4748 4.448ZM40.173 18H44.727L47.279 7.836L49.743 18H54.297L58.323 2.556H54.275L52.031 13.798L49.391 2.556H45.255L42.505 13.798L40.283 2.556H36.257L40.173 18ZM70.7477 18H74.7297L69.1417 2.556H64.7857L59.1977 18H63.1357L64.0597 15.272H69.8237L70.7477 18ZM68.8557 12.368H65.0497L66.9417 6.714L68.8557 12.368ZM86.4844 2.556V12.126L80.1924 2.556H76.4304V18H80.1924V8.474L86.4844 18H90.2464V2.556H86.4844Z" fill="black"/>
<path d="M104.851 2.38C100.231 2.38 96.9975 5.636 96.9975 10.256C96.9975 14.876 100.253 18.11 104.873 18.11C108.943 18.11 111.517 15.448 112.309 12.786V9.288H104.125V12.06H108.899C108.327 13.798 107.029 14.788 105.159 14.788C102.453 14.788 100.825 13.116 100.825 10.256C100.825 7.572 102.431 5.856 104.851 5.856C106.259 5.856 107.315 6.406 107.887 7.44H112.045C111.231 4.272 108.547 2.38 104.851 2.38ZM129.595 10.234C129.595 5.592 126.097 2.336 121.697 2.336C117.319 2.336 113.755 5.592 113.755 10.234C113.755 14.876 117.319 18.154 121.697 18.154C126.075 18.154 129.595 14.876 129.595 10.234ZM117.605 10.234C117.605 7.484 119.189 5.746 121.697 5.746C124.161 5.746 125.767 7.484 125.767 10.234C125.767 12.94 124.161 14.722 121.697 14.722C119.189 14.722 117.605 12.94 117.605 10.234Z" fill="#00D19F"/>
</svg>
